<?xml version="1.0" standalone="no"?>
<!DOCTYPE svg PUBLIC "-//W3C//DTD SVG 20010904//EN"
 "http://www.w3.org/TR/2001/REC-SVG-20010904/DTD/svg10.dtd">
<svg version="1.0" xmlns="http://www.w3.org/2000/svg"
 width="16.000000pt" height="16.000000pt" viewBox="0 0 16.000000 16.000000"
 preserveAspectRatio="xMidYMid meet">
<metadata>
Created by potrace 1.11, written by Peter Selinger 2001-2013
</metadata>
<g transform="translate(0.000000,16.000000) scale(0.001762,-0.001762)"
fill="#000000" stroke="none">
<path d="M4267 8954 c-1 -1 -29 -5 -62 -9 -33 -3 -73 -8 -89 -11 -16 -3 -48
-7 -70 -9 -43 -5 -75 -10 -116 -19 -137 -30 -232 -46 -240 -41 -5 3 -10 1 -10
-5 0 -6 -3 -9 -8 -6 -4 2 -30 0 -57 -5 -28 -6 -65 -12 -83 -14 -40 -4 -91 -23
-113 -42 -17 -15 -47 -22 -114 -28 -22 -2 -69 -13 -105 -25 -36 -13 -71 -23
-77 -23 -7 0 -13 -5 -13 -10 0 -6 -3 -8 -6 -5 -7 8 -102 -25 -179 -61 -33 -15
-71 -32 -85 -36 -14 -4 -41 -18 -60 -31 -19 -13 -39 -24 -45 -24 -20 0 -201
-74 -248 -102 -26 -15 -53 -28 -58 -28 -6 0 -45 -24 -87 -52 -42 -29 -97 -64
-122 -77 -64 -35 -217 -137 -248 -167 -15 -14 -57 -45 -93 -69 -37 -24 -93
-68 -125 -97 -33 -30 -90 -78 -129 -108 -121 -93 -486 -454 -550 -544 -11 -16
-40 -54 -63 -85 -24 -31 -59 -78 -77 -106 -18 -27 -47 -66 -64 -85 -68 -76
-152 -214 -221 -360 -12 -25 -41 -79 -66 -120 -25 -41 -50 -87 -56 -102 -5
-16 -14 -28 -19 -28 -5 0 -9 -4 -9 -9 0 -5 -10 -30 -22 -57 -11 -27 -20 -51
-19 -53 2 -2 -1 -7 -7 -10 -13 -9 -106 -233 -137 -331 -15 -47 -33 -101 -40
-120 -36 -93 -65 -178 -70 -205 -8 -37 -13 -59 -15 -62 -2 -2 -3 -6 -4 -10 -1
-5 -8 -26 -15 -48 -13 -42 -17 -67 -25 -150 -5 -53 -8 -66 -24 -130 -6 -22
-13 -56 -16 -75 -2 -19 -7 -45 -10 -57 -3 -13 -8 -32 -10 -43 -3 -11 -7 -24
-10 -29 -9 -15 -20 -299 -20 -541 0 -302 11 -525 28 -582 14 -46 19 -71 31
-158 8 -59 10 -70 40 -205 16 -74 76 -278 106 -365 49 -138 130 -352 151 -400
47 -105 192 -386 236 -455 26 -41 67 -106 90 -145 24 -38 72 -105 106 -148 34
-42 77 -99 96 -127 64 -94 581 -615 695 -701 39 -29 88 -69 110 -89 22 -20 69
-57 105 -83 36 -25 90 -67 121 -92 51 -41 108 -80 178 -120 14 -8 29 -19 33
-25 4 -5 11 -10 15 -11 8 0 80 -42 139 -81 19 -12 34 -19 34 -15 0 4 4 2 8 -5
4 -6 45 -31 92 -55 47 -25 111 -59 143 -76 31 -18 57 -29 57 -26 0 4 7 1 15
-6 8 -7 15 -10 15 -7 0 10 106 -30 146 -56 22 -13 63 -29 91 -35 28 -7 67 -21
85 -32 18 -11 40 -20 48 -20 9 0 33 -9 55 -20 22 -11 48 -20 58 -20 10 0 31
-7 47 -15 17 -9 30 -13 30 -10 0 3 9 1 19 -5 11 -5 35 -12 53 -15 18 -2 65
-14 103 -25 39 -12 81 -23 95 -26 14 -3 48 -12 75 -19 28 -8 73 -17 100 -20
81 -8 119 -16 133 -27 6 -6 12 -7 12 -3 0 4 6 3 13 -3 6 -5 46 -13 87 -17 126
-12 133 -13 215 -21 157 -16 716 -9 815 10 14 3 68 7 120 11 52 3 113 11 135
16 49 14 70 18 115 24 82 12 106 17 130 30 14 7 48 15 75 19 58 7 222 49 280
72 22 9 49 18 60 21 32 7 35 8 123 36 46 15 95 33 110 41 15 7 48 18 74 25 26
6 71 25 100 41 29 17 64 36 78 41 79 34 120 55 120 62 0 4 6 7 14 7 22 0 177
80 221 114 21 17 47 36 56 41 52 31 83 47 100 50 10 2 42 21 71 42 30 21 61
43 70 48 58 36 206 141 218 155 8 9 46 38 84 65 89 61 104 75 375 345 249 248
322 326 356 381 13 19 29 42 37 50 38 40 288 399 288 414 0 4 11 21 24 38 29
39 103 166 132 228 12 24 32 66 45 94 13 27 24 52 24 55 0 3 8 16 17 30 20 31
68 145 68 163 0 7 8 28 18 47 39 78 157 404 166 460 11 67 17 93 25 109 8 16
18 59 27 116 3 17 10 45 16 63 11 38 19 81 23 132 1 19 4 36 5 38 1 1 3 14 5
30 1 15 5 43 9 62 13 63 16 160 20 620 3 283 1 474 -6 505 -5 28 -11 59 -13
70 -2 11 -6 34 -10 50 -3 17 -8 41 -10 55 -2 14 -6 39 -9 55 -12 61 -14 71
-20 120 -10 70 -102 381 -136 460 -10 22 -21 56 -24 75 -8 37 -9 40 -54 140
-16 36 -36 83 -43 105 -8 22 -28 65 -44 95 -17 30 -40 78 -52 105 -33 76 -134
271 -156 299 -5 6 -17 25 -27 41 -11 17 -25 39 -32 49 -77 118 -149 228 -175
268 -17 28 -55 78 -85 112 -29 34 -62 75 -73 91 -49 69 -172 200 -386 414
-194 194 -248 242 -330 301 -42 30 -126 90 -185 132 -60 43 -114 82 -121 88
-7 5 -14 10 -17 10 -6 0 -202 116 -238 141 -15 11 -29 19 -32 19 -3 0 -21 11
-41 25 -58 38 -476 242 -515 249 -31 7 -111 33 -165 56 -26 11 -232 80 -270
91 -30 8 -94 25 -127 34 -31 9 -62 16 -88 21 -14 3 -32 7 -40 9 -8 2 -31 7
-50 10 -19 3 -55 10 -80 16 -25 5 -56 11 -70 13 -14 2 -32 6 -40 9 -8 4 -46 9
-85 12 -95 8 -150 13 -215 19 -148 14 -673 29 -683 20z m588 -288 c161 -5 241
-12 305 -26 25 -6 70 -12 100 -15 30 -2 96 -14 145 -25 50 -12 108 -23 129
-26 22 -2 45 -9 53 -15 7 -6 13 -9 13 -6 0 4 19 0 41 -8 23 -8 51 -15 63 -15
12 0 39 -9 61 -20 22 -11 49 -20 60 -20 12 0 26 -5 33 -12 7 -7 12 -9 12 -4 0
4 12 0 28 -8 44 -23 109 -45 116 -39 3 4 6 2 6 -3 0 -6 22 -16 50 -23 27 -7
52 -17 56 -22 3 -5 14 -9 25 -9 10 0 19 -5 19 -12 0 -6 3 -8 6 -5 4 4 19 0 33
-7 43 -24 125 -60 138 -62 7 -1 24 -12 39 -23 14 -11 30 -18 34 -16 5 3 11 1
15 -5 6 -10 87 -50 100 -50 4 0 19 -8 33 -19 15 -10 52 -32 82 -48 104 -57
131 -73 152 -93 12 -11 28 -20 36 -20 14 0 144 -97 150 -113 2 -4 23 -17 45
-29 23 -11 44 -23 47 -27 15 -19 129 -111 138 -111 5 0 35 -24 66 -52 31 -29
84 -78 118 -108 34 -30 80 -72 103 -92 22 -21 57 -52 78 -69 20 -17 37 -36 37
-43 0 -7 21 -35 48 -62 26 -27 76 -83 112 -123 36 -40 76 -83 88 -95 13 -11
30 -36 37 -53 8 -18 24 -43 37 -56 42 -44 91 -107 108 -142 7 -15 84 -129 90
-135 3 -3 18 -30 33 -60 36 -72 60 -113 72 -122 6 -4 7 -8 3 -8 -4 0 8 -26 27
-57 19 -32 35 -65 35 -73 0 -9 9 -22 20 -30 11 -8 20 -22 20 -32 0 -10 9 -35
20 -55 11 -21 20 -44 20 -51 0 -7 16 -44 35 -82 19 -39 36 -73 36 -77 2 -12
10 -36 19 -58 5 -11 17 -40 28 -66 11 -25 25 -70 33 -100 7 -29 18 -57 24 -61
5 -4 7 -8 3 -8 -4 0 2 -25 12 -55 10 -30 16 -55 13 -55 -3 0 0 -7 7 -15 7 -8
9 -15 5 -15 -4 0 -3 -6 3 -13 6 -7 14 -37 17 -67 4 -30 11 -60 16 -66 5 -6 11
-26 14 -45 8 -60 33 -195 40 -219 6 -20 16 -111 20 -175 4 -75 14 -167 21
-195 8 -32 8 -577 -1 -610 -17 -73 -26 -138 -30 -231 -2 -57 -5 -104 -6 -104
-1 0 -3 -9 -4 -20 -1 -11 -9 -45 -18 -75 -14 -49 -24 -105 -32 -190 -1 -14 -6
-33 -10 -43 -4 -10 -8 -30 -10 -45 -1 -15 -5 -34 -8 -42 -23 -56 -58 -172 -53
-177 3 -3 0 -13 -6 -21 -7 -7 -14 -24 -15 -35 -14 -90 -127 -356 -151 -357 -8
0 -11 -7 -8 -18 3 -9 -3 -34 -14 -55 -11 -20 -20 -44 -20 -52 0 -8 -9 -32 -20
-52 -11 -21 -20 -42 -20 -48 0 -6 -10 -21 -22 -35 -23 -25 -37 -50 -103 -177
-20 -40 -41 -73 -46 -73 -5 0 -9 -5 -9 -10 0 -14 -70 -124 -82 -128 -4 -2 -15
-18 -22 -36 -7 -17 -20 -39 -29 -48 -9 -8 -39 -46 -67 -84 -84 -113 -88 -118
-122 -155 -79 -84 -114 -126 -135 -159 -12 -19 -23 -31 -23 -26 0 4 -12 -6
-27 -24 -54 -62 -159 -166 -192 -190 -50 -37 -111 -90 -156 -136 -38 -38 -91
-81 -140 -114 -12 -8 -48 -35 -80 -60 -32 -25 -76 -56 -98 -69 -22 -13 -50
-32 -61 -43 -26 -24 -181 -118 -196 -118 -5 0 -10 -3 -10 -7 0 -9 -38 -32
-165 -100 -69 -37 -232 -113 -243 -113 -6 0 -12 -4 -12 -10 0 -5 -9 -10 -21
-10 -11 0 -29 -5 -40 -11 -11 -6 -30 -12 -41 -14 -12 -3 -24 -9 -27 -14 -3 -5
-22 -13 -41 -19 -19 -5 -52 -17 -72 -26 -21 -9 -38 -13 -38 -10 0 4 -6 1 -14
-5 -8 -6 -18 -11 -22 -10 -5 1 -22 -3 -37 -9 -15 -7 -42 -14 -58 -17 -17 -3
-50 -15 -73 -26 -24 -11 -56 -22 -72 -23 -16 -2 -30 -5 -31 -6 -2 -1 -6 -3
-10 -5 -5 -1 -21 -5 -38 -10 -16 -4 -34 -10 -40 -14 -5 -3 -26 -6 -45 -7 -19
-1 -35 -2 -35 -4 0 -1 -7 -3 -15 -5 -8 -2 -44 -11 -80 -21 -36 -9 -74 -18 -85
-19 -11 -1 -20 -3 -20 -5 0 -1 -22 -4 -50 -6 -27 -2 -63 -6 -80 -9 -122 -22
-557 -34 -755 -22 -36 3 -70 1 -75 -4 -13 -9 -174 -13 -230 -5 -22 4 -58 8
-80 11 -22 2 -51 7 -65 10 -42 10 -82 15 -150 20 -72 5 -104 10 -122 21 -12 8
-37 12 -109 18 -25 2 -56 9 -68 15 -21 12 -32 15 -89 27 -19 4 -157 45 -202
60 -8 3 -15 4 -15 3 0 -1 -11 4 -25 11 -14 8 -29 15 -35 16 -5 1 -22 4 -36 7
-14 3 -47 15 -72 26 -25 12 -49 21 -52 21 -8 0 -49 18 -163 71 -45 22 -86 39
-91 39 -5 0 -22 7 -38 15 -15 8 -58 28 -95 45 -37 17 -70 34 -72 39 -3 5 -32
21 -63 37 -88 43 -295 175 -328 209 -11 11 -34 27 -50 34 -34 17 -126 89 -138
108 -4 7 -15 13 -22 13 -8 0 -15 4 -15 9 0 5 -13 14 -29 21 -16 6 -63 44 -105
83 -152 144 -178 167 -187 167 -5 0 -9 4 -9 8 0 5 -11 15 -25 22 -14 7 -25 20
-25 27 0 7 -38 53 -85 101 -160 165 -212 222 -226 249 -8 15 -21 35 -29 44
-62 70 -96 114 -106 137 -6 15 -20 37 -30 49 -44 50 -52 62 -59 82 -3 12 -11
21 -16 21 -5 0 -9 6 -9 14 0 8 -4 16 -9 18 -8 3 -62 102 -61 113 0 3 -11 18
-25 33 -14 15 -25 32 -25 39 0 7 -4 13 -10 13 -5 0 -10 9 -10 19 0 11 -4 22
-9 25 -13 8 -61 110 -61 129 0 10 -4 17 -9 17 -8 0 -61 99 -61 114 0 4 -14 37
-31 74 -17 36 -32 71 -34 77 -3 13 -14 41 -35 90 -10 22 -27 74 -39 115 -12
41 -34 109 -49 150 -14 41 -27 77 -27 80 -1 3 -5 23 -10 45 -4 22 -9 47 -11
55 -3 18 -21 90 -35 140 -5 19 -11 53 -14 75 -2 22 -9 58 -14 80 -10 37 -14
60 -26 155 -2 19 -7 73 -10 120 -3 47 -8 110 -11 140 -3 30 -6 172 -6 315 0
238 3 316 18 460 3 28 7 71 8 96 2 25 6 51 10 57 4 6 9 29 11 51 2 22 11 65
19 97 8 32 13 61 10 65 -2 4 3 29 12 54 19 57 23 76 29 135 3 25 10 47 15 48
6 2 10 12 10 22 0 9 9 46 21 81 11 35 22 69 23 74 2 6 6 17 9 25 3 8 20 57 36
108 17 51 38 106 46 122 9 17 15 32 15 35 0 3 7 19 15 35 8 16 15 32 15 35 -2
7 51 119 117 250 48 98 53 106 101 181 17 28 32 55 32 61 0 5 16 32 35 59 19
27 35 54 35 60 0 7 7 15 16 18 8 3 13 10 10 14 -4 7 5 20 53 78 5 6 21 30 35
53 15 23 42 58 60 79 18 20 45 55 59 77 38 57 79 104 187 214 52 54 111 115
131 137 52 55 148 146 259 241 52 45 103 89 112 98 10 8 22 15 27 15 5 0 28
18 50 39 23 22 50 43 61 46 11 4 20 11 20 16 0 5 6 9 13 9 6 0 30 16 52 35 22
19 45 35 52 35 7 0 13 4 13 9 0 5 14 14 30 21 17 7 44 25 62 40 17 15 76 50
130 76 54 27 98 52 98 56 0 7 58 42 70 43 12 0 105 50 111 59 4 4 20 9 36 11
15 1 43 10 61 19 17 9 35 16 38 15 4 0 10 3 13 8 5 8 113 62 126 63 3 1 24 8
47 16 24 9 50 17 58 19 8 2 15 4 15 5 0 1 11 3 25 6 14 2 43 13 65 23 23 11
61 24 85 31 25 7 54 17 65 23 11 6 28 12 38 14 9 2 25 4 35 6 9 2 28 9 40 16
13 7 26 10 29 7 3 -3 22 2 42 10 20 9 59 17 86 19 45 3 116 18 155 32 8 3 40
7 70 9 30 1 55 3 55 4 0 5 67 16 155 25 81 8 144 16 148 20 3 3 469 -4 657 -9z"/>
<path d="M6135 7777 c-22 -11 -48 -23 -57 -28 -10 -5 -25 -9 -33 -9 -8 0 -15
-4 -15 -8 0 -5 -16 -14 -35 -22 -19 -8 -35 -17 -35 -21 0 -5 -18 -13 -39 -20
-21 -6 -51 -22 -65 -34 -31 -27 -71 -25 -176 7 -83 26 -94 29 -100 31 -3 0
-36 7 -75 14 -38 8 -79 15 -90 17 -11 3 -38 11 -60 19 -22 8 -46 12 -53 10 -7
-3 -19 0 -26 6 -7 6 -49 13 -92 15 -44 3 -80 5 -81 7 -2 1 -24 4 -50 6 -247
19 -788 18 -998 -3 -38 -3 -86 -6 -105 -5 -19 0 -42 -2 -50 -6 -8 -3 -33 -7
-55 -9 -56 -4 -97 -10 -115 -17 -20 -7 -57 -15 -106 -22 -59 -9 -113 -25 -119
-34 -3 -5 -14 -7 -25 -4 -11 3 -20 0 -20 -6 0 -5 -6 -8 -13 -5 -8 3 -27 -1
-43 -7 -16 -7 -40 -14 -54 -16 -14 -2 -35 -11 -47 -19 -12 -8 -27 -14 -33 -14
-20 0 -160 -71 -160 -81 0 -5 -6 -9 -14 -9 -27 0 -175 -91 -219 -135 -15 -15
-27 -24 -27 -21 0 13 -82 -57 -165 -139 -87 -88 -115 -120 -115 -134 0 -5 -16
-25 -35 -44 -19 -19 -35 -37 -35 -40 0 -6 -32 -45 -73 -88 -15 -16 -27 -35
-27 -42 0 -7 -16 -30 -36 -52 -19 -22 -44 -57 -55 -77 -11 -21 -24 -38 -30
-38 -6 0 -8 -4 -4 -10 3 -5 -4 -19 -16 -31 -11 -11 -22 -27 -23 -34 -1 -7 -7
-19 -13 -26 -6 -8 -14 -24 -17 -36 -4 -13 -12 -23 -17 -23 -5 0 -9 -5 -9 -12
0 -6 -11 -26 -26 -45 -14 -18 -22 -33 -18 -33 3 0 1 -6 -5 -14 -7 -8 -14 -23
-16 -34 -2 -12 -13 -34 -23 -49 -11 -15 -32 -68 -47 -118 -14 -49 -35 -112
-46 -138 -11 -27 -18 -54 -16 -60 2 -7 -2 -29 -9 -49 -7 -21 -10 -38 -6 -38 4
0 2 -4 -4 -8 -13 -7 -21 -49 -31 -147 -9 -91 -11 -110 -13 -110 -2 0 -11 -35
-14 -57 -1 -10 -5 -20 -8 -23 -3 -3 -4 -34 -2 -70 2 -36 -1 -65 -5 -65 -4 0
-8 -35 -8 -77 -2 -197 -12 -263 -59 -401 -25 -73 -42 -137 -39 -143 4 -5 1
-16 -5 -24 -6 -8 -9 -19 -6 -24 4 -5 2 -12 -2 -15 -5 -3 -8 -17 -7 -31 2 -14
0 -27 -4 -30 -8 -4 -6 -102 3 -145 7 -32 57 -74 68 -57 4 7 12 12 17 12 5 0
20 11 33 25 32 35 86 72 90 63 2 -5 4 -54 3 -110 0 -57 2 -103 6 -103 3 0 6
-44 6 -97 -1 -107 3 -142 23 -188 7 -16 14 -39 16 -50 7 -43 11 -61 23 -92 7
-18 12 -35 11 -39 -1 -4 3 -10 9 -14 6 -3 13 -17 16 -30 2 -12 7 -25 9 -28 5
-4 40 21 86 61 9 8 27 11 45 8 25 -5 31 -12 35 -41 4 -19 25 -74 48 -122 23
-47 42 -90 42 -95 0 -5 9 -26 20 -48 11 -22 20 -44 20 -51 0 -6 9 -19 20 -29
11 -10 20 -23 20 -30 0 -7 8 -27 17 -46 10 -19 19 -43 20 -54 2 -11 7 -29 12
-40 5 -11 21 -47 36 -80 15 -33 31 -68 37 -79 5 -10 12 -29 14 -42 2 -13 15
-44 29 -68 13 -24 22 -46 19 -49 -3 -3 1 -16 10 -29 8 -13 15 -32 15 -43 -1
-11 2 -31 6 -45 3 -14 8 -38 11 -55 2 -16 7 -43 10 -60 11 -60 6 -391 -6 -425
-2 -3 -2 -8 -1 -12 0 -5 -4 -8 -9 -8 -6 0 -10 -6 -9 -12 2 -10 -7 -60 -16 -98
-3 -10 -26 -66 -40 -95 -12 -26 -12 -32 5 -56 11 -14 17 -28 15 -31 -3 -2 6
-15 20 -28 14 -13 25 -29 25 -37 0 -7 4 -13 8 -13 4 0 25 -22 46 -50 21 -27
42 -47 47 -44 5 3 9 1 9 -5 0 -10 82 -101 92 -101 3 0 41 -34 84 -75 43 -41
81 -75 84 -75 4 0 20 -12 36 -27 17 -16 54 -48 84 -73 30 -25 69 -59 87 -76
18 -18 33 -30 33 -26 0 3 8 -4 17 -14 25 -27 90 -74 102 -74 6 0 11 -4 11 -8
0 -5 12 -15 27 -23 15 -8 37 -23 49 -34 32 -29 49 -42 88 -69 19 -13 33 -26
30 -29 -3 -3 4 -8 15 -12 12 -3 27 -12 33 -19 19 -18 126 -96 133 -96 3 0 14
-8 24 -18 33 -29 44 -37 91 -62 25 -14 47 -28 48 -32 2 -5 9 -8 16 -8 18 0
100 -43 120 -63 10 -9 26 -17 37 -17 10 0 19 -4 19 -10 0 -5 11 -12 25 -16 14
-3 25 -10 25 -15 0 -5 6 -9 13 -9 8 0 24 -9 37 -20 48 -42 310 -157 330 -145
5 3 13 -1 16 -9 3 -8 22 -20 42 -26 21 -6 44 -14 52 -17 16 -7 25 -9 55 -17
68 -18 95 -23 99 -18 3 2 12 0 19 -7 8 -6 44 -12 81 -14 36 -1 66 -5 66 -9 0
-3 24 -7 53 -8 119 -4 147 -2 187 13 8 3 27 8 41 11 39 9 139 56 139 67 0 5 9
9 19 9 11 0 28 15 42 37 26 43 28 51 35 113 7 73 12 98 20 112 5 7 9 19 10 26
2 8 6 21 10 30 4 9 8 24 8 33 1 9 7 23 15 32 7 10 11 17 7 17 -4 0 0 12 7 28
19 37 12 186 -11 228 -5 11 -13 39 -16 64 -3 25 -9 59 -12 75 -3 17 -7 39 -9
50 -1 11 -3 20 -4 20 -12 0 -22 333 -13 391 3 16 19 25 75 42 86 25 104 29
226 46 18 3 42 8 53 12 37 11 108 12 108 0 0 -7 3 -7 8 1 5 8 49 15 127 18
164 8 306 19 375 29 19 3 51 7 70 10 55 8 92 16 130 28 19 7 41 11 47 10 7 -2
38 9 68 23 31 14 59 25 64 25 5 0 11 7 15 15 3 8 10 14 15 13 14 -4 82 62 75
73 -3 5 0 9 5 9 6 0 11 5 11 10 0 6 9 20 19 31 17 19 31 63 36 114 1 11 5 30
9 43 4 12 4 22 -1 22 -4 0 -8 32 -9 72 0 46 -4 73 -12 76 -7 2 -12 10 -12 17
0 8 -8 19 -19 24 -10 6 -26 26 -35 44 -8 19 -22 40 -31 47 -8 7 -12 16 -9 21
3 5 0 9 -6 9 -6 0 -9 4 -5 9 3 5 1 12 -5 16 -14 9 -12 67 3 85 16 20 95 82
121 95 23 11 41 86 29 120 -4 11 -8 26 -9 34 -2 8 -7 17 -11 20 -5 3 -10 25
-12 48 -2 43 5 54 64 97 16 11 20 26 21 78 0 34 -2 67 -4 72 -3 5 -6 23 -8 39
-1 16 -6 32 -12 36 -6 3 -12 20 -15 36 -2 17 -6 37 -10 45 -3 8 -5 22 -5 30 0
8 -1 20 -2 25 -6 24 2 31 38 34 20 1 53 5 72 7 19 3 87 6 150 7 117 2 180 18
180 45 0 7 5 10 10 7 6 -3 10 -2 10 4 0 6 10 19 22 31 12 11 18 20 12 20 -5 0
-3 4 5 9 14 9 25 166 13 186 -3 5 -7 32 -8 60 -1 27 -3 50 -4 50 -1 0 -3 9 -5
20 -4 31 -36 117 -52 141 -8 13 -14 27 -14 31 1 16 -11 43 -20 43 -5 0 -9 11
-9 25 0 14 -7 28 -15 31 -8 4 -15 13 -15 21 0 19 -28 71 -51 96 -10 12 -19 27
-19 34 0 8 -7 16 -15 19 -8 4 -13 9 -11 13 3 4 -13 30 -34 58 -21 28 -36 54
-33 57 4 3 0 6 -7 6 -7 0 -10 3 -7 6 4 4 -6 23 -21 43 -15 20 -41 56 -57 81
-15 25 -39 61 -52 81 -13 19 -23 40 -23 47 0 7 -4 12 -9 12 -18 0 -20 45 -3
70 9 14 17 27 17 30 1 3 9 21 20 40 27 51 27 49 29 245 2 139 -1 186 -12 208
-8 16 -16 48 -17 71 -4 45 -33 146 -44 146 -3 0 -7 17 -8 38 -3 48 -7 70 -23
107 -7 17 -20 59 -31 93 -10 35 -22 69 -26 75 -5 7 -10 26 -12 42 -1 17 -9 37
-17 46 -10 12 -14 36 -13 75 2 48 7 63 26 82 13 12 31 22 39 22 8 0 33 18 56
41 37 36 40 44 32 67 -5 15 -15 27 -21 27 -6 0 -33 19 -59 43 -26 23 -53 42
-61 42 -7 0 -13 5 -13 10 0 6 -6 10 -13 10 -8 0 -22 10 -33 21 -18 20 -53 39
-84 45 -8 2 -20 10 -26 18 -6 9 -19 16 -28 16 -9 0 -16 4 -16 10 0 5 -12 13
-27 16 -16 4 -34 11 -41 17 -7 5 -15 7 -19 3 -4 -3 -16 3 -28 14 -11 11 -30
21 -40 23 -11 2 -30 8 -42 15 -12 7 -27 12 -34 12 -6 0 -17 7 -23 15 -6 9 -23
17 -37 19 -13 1 -29 5 -34 8 -8 4 -21 8 -75 23 -37 10 -107 49 -107 61 0 17
-6 16 132 19 82 2 119 -1 144 -12 18 -8 39 -16 45 -18 6 -1 18 -5 27 -9 9 -4
20 -6 25 -4 5 1 18 -3 29 -9 11 -6 28 -9 37 -8 9 2 19 -3 22 -11 3 -8 11 -14
18 -13 7 1 27 -4 43 -11 17 -7 33 -14 38 -15 4 -2 8 -4 10 -5 10 -9 60 -4 64
6 3 8 10 14 17 14 6 0 18 10 26 21 8 12 26 32 40 45 14 13 21 24 16 24 -5 0 3
9 17 21 15 11 26 23 25 27 -3 12 32 72 42 72 6 0 10 7 10 15 0 8 5 15 11 15 5
0 19 23 31 50 11 28 25 50 29 50 5 0 9 6 9 13 0 7 18 41 40 75 29 45 38 67 32
78 -5 9 -12 16 -15 15 -4 0 -24 7 -44 16 -21 9 -42 18 -48 19 -25 6 -122 26
-141 28 -11 2 -27 7 -34 11 -20 13 -100 18 -260 17 -142 0 -184 -3 -245 -17
-59 -12 -135 -12 -145 0 -6 7 -12 26 -14 41 -5 37 -17 86 -25 99 -3 5 -6 26
-8 45 -5 74 -19 117 -41 122 -9 3 -35 -4 -57 -15z"/>
</g>
</svg>
